<?xml version="1.0" encoding="UTF-8"?>
<svg id="Layer_2" data-name="Layer 2" xmlns="http://www.w3.org/2000/svg" viewBox="0 0 460.46 361.79">
  <defs>
    <style>
      .cls-1 {
        fill: #e27d60;
      }
    </style>
  </defs>
  <g id="Layer_1-2" data-name="Layer 1">
    <g>
      <path class="cls-1" d="M258.5,0c6.54,1.94,13.35,2.43,19.93,4.3,32.88,9.35,69.66,41.85,73.07,80.09,5.65-1.14,10.12-4.9,15.96-6.54,22.3-6.26,54.49,1.08,71.89,17.56,31.7,30.02,24.11,81.48.83,114.47-24.71,35.02-65.24,33.22-101.84,25.2v93.43s-6.58-10.54-6.58-10.54c-13.19-14.95-59.57-30.99-78.89-36.18-26.17-7.04-53.84-11.81-80.79-13.57l7.99-1.99c34.39.03,68.91,3.06,102.31,12.12,13.25,3.59,25.93,8.99,39.05,12.98.09-18.85,4.4-43.4-8.43-58.79-11.89-14.26-64.8-29.55-83.16-31.61-21.72-2.43-72.3,2.52-92.22,11.85-12.26,5.74-15.56,18.07-19.7,30.38-7.08-1.13-14.67,1.08-21.42.98-43.26-.66-82.17-31.44-93.23-76.16-1.26-5.08-1.9-10.22-3.08-15.29.4-6.17-.55-13.02,0-19.09,3.2-35.13,28.09-64.17,58.98-74.06,36.75-11.76,79.87-10.44,111.04-37.46,1.04,1.22-7.71,9.88-8.94,11.02-36.11,33.53-103.94,24.75-132.34,63.41-14.9,20.28-18.71,51.5-9.46,75.25,14.62,37.54,69.87,68.42,98.05,29.65-18.08-13.69-30.96-35.08-33.71-58.76l25.85,33.12c23.48,23.76,61.91,21.91,91.93,17,12.55-2.06,23.12-10.99,27.58-23.74,1.96-5.6,1.49-10.22,3.52-15.33,4.47,12.49,2.08,24.85-1.41,37.16,33.1.68,54.88-28.97,59.06-61.9.51-4-1.37-10.1,1.98-12.44,5.2,31.28,4.62,54.4-18.13,76.54-.91.89-2.02.89-1.58,2.82,6.23-.21,12.12,3.26,18.32,3.08,14.14-.41,33.76-14.36,42.7-25.71l7.53-11.52c-1.45,18.68-10.79,33.25-24.41,44.18,25.17,15.72,53.79,22.47,81.71,10.55,37.22-15.9,63.13-67.2,35.16-104.89-27.11-36.52-80.38-20.67-105.59,9.96.16-2.91,1.03-5.81,1.84-8.57,1.31-4.54,7-15.46,7.36-18.27.42-3.3-3.24-12.26-4.65-15.71-10.78-26.43-33.31-43.31-59.77-47.59-39.24-6.35-64.03,13.82-97.94,28.33-29.44,12.6-59.2,20.21-91.08,21.62l43.54-17.21C164.39,50.97,202.21,3.9,240.65,0h17.85Z"/>
      <path class="cls-1" d="M129.89,299.31c7.7-1.02,15.16-4.29,22.95-4.93,39.46-3.24,89.65,20.87,128.37,30.45l52.43,9.71c-22.94,2.87-46.79,4.62-69.97,3.01-9.96-.69-21.7-3.4-31.65-5.33-16.04-3.1-51.7-15.47-65.3-9.94-11.04,4.49-12.42,15.84-2.63,23.31,12.08,9.21,63.6,8.85,79.89,8.09,13-.61,25.88-3.26,38.74-4.79,1.03-.12,3.21-1.16,3.01.71-13.63,2.68-27.21,5.98-40.98,7.92-29.52,4.17-103.52,11.42-124.83-13.91-6.05-7.19-7.61-15.19-7.01-24.62,1.11-17.44,7-37.04,8.45-54.76l8.52,35.08Z"/>
    </g>
  </g>
</svg>