<?xml version="1.0" encoding="UTF-8"?>
<svg id="Layer_2" data-name="Layer 2" xmlns="http://www.w3.org/2000/svg" viewBox="0 0 1222.22 191.5">
  <defs>
    <style>
      .cls-1 {
        fill: #e27d60;
      }
    </style>
  </defs>
  <g id="Layer_1-2" data-name="Layer 1">
    <g>
      <path class="cls-1" d="M70.22,189.77v-86.54h38.74c7.77,0,14.49,1.28,20.16,3.83,5.67,2.56,10.02,6.24,13.05,11.06s4.55,10.49,4.55,17-1.52,12.36-4.55,17.06c-3.04,4.7-7.39,8.31-13.05,10.82-5.67,2.52-12.39,3.77-20.16,3.77h-25.5l10.81-10.38v33.38h-24.04ZM94.27,159.23l-10.81-11.37h24.04c5.02,0,8.78-1.11,11.29-3.34,2.51-2.23,3.76-5.36,3.76-9.4s-1.26-6.94-3.76-9.21c-2.51-2.27-6.27-3.4-11.29-3.4h-24.04l10.81-11.25v47.97ZM122.68,189.77l-21.13-31.52h25.62l21.25,31.52h-25.74Z"/>
      <path class="cls-1" d="M183.76,170.73h44.44v19.04h-68.12v-86.54h66.54v19.04h-42.86v48.46ZM182.06,136.73h39.46v18.17h-39.46v-18.17Z"/>
      <path class="cls-1" d="M283.94,191.5c-6.72,0-12.91-1.09-18.58-3.28-5.67-2.18-10.61-5.27-14.81-9.27-4.21-4-7.49-8.76-9.84-14.28-2.35-5.52-3.52-11.58-3.52-18.17s1.17-12.65,3.52-18.17c2.35-5.52,5.63-10.28,9.84-14.28,4.21-4,9.15-7.09,14.81-9.27,5.67-2.18,11.86-3.28,18.58-3.28,7.85,0,14.88,1.38,21.07,4.14,6.19,2.76,11.35,6.82,15.48,12.18l-15.3,14.09c-2.75-3.29-5.79-5.81-9.11-7.54-3.32-1.73-6.96-2.6-10.93-2.6-3.48,0-6.68.58-9.59,1.73-2.91,1.15-5.4,2.82-7.47,5.01-2.06,2.18-3.69,4.8-4.86,7.85-1.17,3.05-1.76,6.43-1.76,10.14s.59,7.09,1.76,10.14c1.17,3.05,2.79,5.67,4.86,7.85,2.06,2.19,4.55,3.85,7.47,5.01,2.91,1.15,6.11,1.73,9.59,1.73,3.97,0,7.61-.87,10.93-2.6,3.32-1.73,6.35-4.28,9.11-7.67l15.3,14.09c-4.13,5.36-9.29,9.44-15.48,12.24s-13.22,4.2-21.07,4.2Z"/>
      <path class="cls-1" d="M331.3,189.77v-86.54h24.04v86.54h-24.04Z"/>
      <path class="cls-1" d="M372.46,189.77v-86.54h38.74c7.77,0,14.49,1.28,20.16,3.83,5.66,2.56,10.02,6.24,13.05,11.06,3.04,4.82,4.55,10.49,4.55,17s-1.52,12.38-4.55,17.12c-3.04,4.74-7.39,8.41-13.05,11-5.67,2.6-12.39,3.89-20.16,3.89h-25.5l10.81-10.76v33.38h-24.04ZM396.5,159.23l-10.81-11.5h24.04c5.02,0,8.78-1.09,11.29-3.28,2.51-2.18,3.76-5.29,3.76-9.33s-1.26-6.94-3.76-9.21c-2.51-2.27-6.27-3.4-11.29-3.4h-24.04l10.81-11.25v47.97Z"/>
      <path class="cls-1" d="M485.63,170.73h44.44v19.04h-68.12v-86.54h66.54v19.04h-42.87v48.46ZM483.93,136.73h39.46v18.17h-39.46v-18.17Z"/>
      <path class="cls-1" d="M596.86,189.77v-67.13h-26.11v-19.41h76.14v19.41h-25.99v67.13h-24.04Z"/>
      <path class="cls-1" d="M695.1,191.5c-12.55,0-22.32-3.5-29.33-10.51-7-7-10.5-16.9-10.5-29.67v-48.09h24.04v47.35c0,7.34,1.42,12.61,4.25,15.82,2.83,3.21,6.76,4.82,11.78,4.82s8.92-1.61,11.72-4.82c2.79-3.21,4.19-8.49,4.19-15.82v-47.35h23.8v48.09c0,12.78-3.54,22.67-10.63,29.67-7.08,7.01-16.86,10.51-29.32,10.51Z"/>
      <path class="cls-1" d="M769.41,189.77v-67.13h-26.11v-19.41h76.14v19.41h-25.99v67.13h-24.04Z"/>
      <path class="cls-1" d="M871.29,191.5c-6.72,0-12.97-1.11-18.76-3.34-5.79-2.23-10.79-5.38-15-9.46-4.21-4.08-7.51-8.86-9.9-14.34-2.39-5.48-3.58-11.48-3.58-17.99s1.19-12.36,3.58-17.8c2.39-5.44,5.69-10.2,9.9-14.28,4.21-4.08,9.19-7.23,14.94-9.46,5.75-2.22,12.02-3.34,18.82-3.34s13.07,1.11,18.82,3.34c5.75,2.23,10.72,5.36,14.94,9.4,4.21,4.04,7.51,8.78,9.9,14.22,2.39,5.44,3.58,11.42,3.58,17.93s-1.17,12.63-3.52,18.11c-2.35,5.48-5.65,10.24-9.9,14.28-4.25,4.04-9.25,7.17-15,9.4-5.75,2.22-12.02,3.34-18.82,3.34ZM871.29,171.22c3.24,0,6.25-.58,9.05-1.73,2.79-1.15,5.22-2.82,7.29-5.01,2.06-2.18,3.68-4.78,4.86-7.79,1.17-3.01,1.76-6.41,1.76-10.2s-.59-7.19-1.76-10.2c-1.17-3.01-2.79-5.6-4.86-7.79-2.06-2.18-4.49-3.85-7.29-5.01-2.79-1.15-5.81-1.73-9.05-1.73s-6.25.58-9.05,1.73c-2.79,1.15-5.24,2.82-7.35,5.01-2.11,2.18-3.72,4.78-4.86,7.79-1.13,3.01-1.7,6.41-1.7,10.2s.57,7.19,1.7,10.2c1.13,3.01,2.75,5.6,4.86,7.79,2.1,2.19,4.55,3.85,7.35,5.01,2.79,1.15,5.81,1.73,9.05,1.73Z"/>
      <path class="cls-1" d="M931.28,189.77v-86.54h38.74c7.77,0,14.49,1.28,20.16,3.83,5.67,2.56,10.02,6.24,13.05,11.06,3.04,4.82,4.55,10.49,4.55,17s-1.52,12.36-4.55,17.06c-3.04,4.7-7.39,8.31-13.05,10.82-5.67,2.52-12.39,3.77-20.16,3.77h-25.5l10.81-10.38v33.38h-24.04ZM955.32,159.23l-10.81-11.37h24.04c5.02,0,8.78-1.11,11.29-3.34,2.51-2.23,3.77-5.36,3.77-9.4s-1.26-6.94-3.77-9.21c-2.51-2.27-6.27-3.4-11.29-3.4h-24.04l10.81-11.25v47.97ZM983.74,189.77l-21.13-31.52h25.62l21.25,31.52h-25.74Z"/>
      <path class="cls-1" d="M1021.13,189.77v-86.54h24.04v86.54h-24.04Z"/>
      <path class="cls-1" d="M1051.98,189.77l37.52-86.54h23.68l37.64,86.54h-25.01l-29.39-74.55h9.47l-29.39,74.55h-24.53ZM1072.5,172.83l6.19-17.93h41.53l6.19,17.93h-53.92Z"/>
      <path class="cls-1" d="M1157.74,189.77v-86.54h24.04v67.13h40.44v19.41h-64.48Z"/>
    </g>
    <g>
      <path class="cls-1" d="M54.68.82c1.86-.11,3.66-.62,5.53-.76,9.33-.67,21.83,4.24,26.29,13.76,1.35-.82,2.14-2.21,3.49-3.17,5.15-3.7,14.11-4.82,20.13-2.21,10.96,4.75,13.83,18.69,10.93,29.36-3.08,11.32-13.67,14.65-23.83,16.01l8.74,24.03-2.68-2.09c-4.79-2.61-18.22-2.39-23.67-1.92-7.39.64-14.95,2-22.04,4.07l1.87-1.26c8.85-3.21,18.01-5.66,27.44-6.46,3.74-.32,7.51-.12,11.26-.32-1.74-4.86-2.93-11.57-7.67-14.33-4.39-2.55-19.43-1.53-24.34-.35-5.81,1.41-18.36,7.42-22.61,11.68-2.61,2.62-2.31,6.1-2.22,9.65-1.93.37-3.67,1.65-5.42,2.26-11.18,3.88-24.07-.39-31.1-10.86-.8-1.19-1.45-2.45-2.22-3.64-.47-1.62-1.36-3.3-1.79-4.91-2.47-9.33,1.22-19.13,8.23-24.56,8.35-6.46,19.56-10.16,25.05-20.02.38.22-1.06,3.26-1.27,3.67-6.15,12-24.41,16.09-28.1,28.69-1.93,6.61,0,14.99,4.61,20.23,7.27,8.28,24.37,11.05,27.99-1.55-5.93-1.83-11.24-6.12-14.17-11.95l9.75,6.1c8.26,3.91,17.97-.16,25.23-4.23,3.04-1.7,4.92-4.99,4.87-8.69-.02-1.62-.57-2.77-.53-4.27,2.32,2.79,2.86,6.2,3.12,9.69,8.58-2.92,11.4-12.59,9.39-21.45-.24-1.07-1.3-2.47-.65-3.38,4.26,7.56,6.28,13.56,2.5,21.38-.15.31-.44.42-.14.87,1.58-.64,3.42-.29,5-.92,3.6-1.43,7.34-6.85,8.57-10.61l.86-3.67c1.38,4.94.34,9.56-2.14,13.65,7.94,1.69,15.94.74,22-4.93,8.08-7.57,9.94-23.19-.77-30.26-10.39-6.85-22.6,2.21-26.22,12.44-.23-.76-.28-1.59-.33-2.38-.09-1.29.35-4.63.18-5.39-.2-.89-1.98-2.85-2.67-3.61-5.25-5.79-12.62-8.02-19.82-6.64-10.69,2.04-15.17,9.55-22.53,16.45-6.39,6-13.33,10.74-21.4,14.08l9.59-8.5c8.3-6.86,13.62-22.5,23.14-27.1l4.59-1.67Z"/>
      <path class="cls-1" d="M49.63,89.82c1.88-.98,3.5-2.52,5.44-3.42,9.85-4.53,25.01-3.02,35.86-4.18l14.39-2.41c-5.63,2.89-11.6,5.57-17.71,7.32-2.63.75-5.9,1.16-8.64,1.59-4.41.7-14.74.86-17.72,3.56-2.42,2.19-1.71,5.24,1.51,6.24,3.97,1.24,17.18-3.68,21.3-5.4,3.29-1.37,6.35-3.26,9.51-4.86.25-.13.72-.6.84-.1-3.25,1.96-6.44,4.08-9.8,5.87-7.2,3.83-25.55,12.63-33.4,8.11-2.23-1.28-3.38-3.19-4.11-5.67-1.35-4.59-1.67-10.18-2.95-14.87l5.47,8.22Z"/>
    </g>
  </g>
</svg>